<?xml version="1.0" encoding="utf-8"?>
<!-- Generator: Adobe Illustrator 29.8.2, SVG Export Plug-In . SVG Version: 9.03 Build 0)  -->
<svg version="1.1" id="图层_1" xmlns="http://www.w3.org/2000/svg" xmlns:xlink="http://www.w3.org/1999/xlink" x="0px" y="0px"
	 viewBox="0 0 330 330" style="enable-background:new 0 0 330 330;" xml:space="preserve">
<g>
	<rect x="0" style="fill:#FEFEFE;" width="330" height="330"/>
	<path style="fill:#09244C;" d="M288,72l1,2c1.726,3.528,1.646,12.267,0,16c-1.728,2.319-1.509,4.937,0,7
		c1.479,18.653,1.479,37.347,0,56c-1.728,2.319-1.509,4.937,0,7c1.479,29.325,1.479,58.675,0,88l-1,2
		c1.562,16.354-21.829,35.61-37.623,35.877c-55.263-2.891-115.19,4.27-169.916,0.162C57.816,284.339,42.066,269.458,39,247
		l-1.002-0.177c0-57.031,0-114.072,0-171.124L39,75c2.99-20.716,17.994-37.336,39.464-39.036
		c55.484-4.394,116.824,3.262,172.913,0.159C266.873,35.836,289.466,56.599,288,72z"/>
	<path style="fill:#FAFAFB;" d="M289,72l2.005-1.497v180.994L289,250c-1.15-0.514-1.46-1.767,0-2c0-29.317,0-58.683,0-88
		c-1.746-1.234-1.693-5.65,0-7c0-18.651,0-37.349,0-56c-1.746-1.234-1.693-5.65,0-7V74C287.482,73.997,287.822,72.752,289,72z"/>
	<polygon style="fill:#FAFAFB;" points="39,75 39,247 36.995,248.497 36.995,73.503 	"/>
	<path style="fill:#304765;" d="M289,72v2c-3.944,0.385-1.051-1.467-1-2H289z"/>
	<path style="fill:#304765;" d="M289,248v2h-1C287.949,249.466,285.056,247.615,289,248z"/>
	<path style="fill:#FAFAFB;" d="M82,183c-1.253-15.552-0.08-31.95,0.043-47.459c0.066-8.269-0.183-16.552-0.001-24.816
		c0.399-2.001,13.584-8.384,16.26-9.923c4.086-2.349,7.492-7.44,12.65-5.273l52.697,33.263l56.027-33.607
		C223.167,97.374,247,109.532,247,111.5V185c-9.782-2.272-18.195-9.817-27.836-13.159L218,129l-1.377,0.394
		c2.309,0.651-4.778,7.066-6.623,4.606c-9.685,5.981-19.4,11.273-29.326,17.174c-3.547,2.109-12.692,9.856-16.155,9.902
		c-2.06,0.027-3.484-1.084-5.198-1.9C146.269,152.965,127.986,140.041,115,132c-1.687,0.818-2.979,0.588-3.877-0.69l-1.349,5.122
		c0.018,11.557-0.24,23.08-0.774,34.568c-1.355,2.276-3.779,2.717-6,4c1.068,3.108-2.554,4.422-5,3c-3.799,1.982-9.92,4.642-14,6
		C82.776,184.606,82.252,184.325,82,183z"/>
	<path style="fill:#FAFAFB;" d="M94,190c2.989-1.601,15.082-8.159,17.262-7.833l52.401,28.603l53.074-28.603
		c4.544-0.68,19.243,11.24,25.259,11.848c2.024,2.175-7.255,4.386-8.285,4.99c-0.64,0.376-0.765,1.559-1.459,1.963
		c-21.8,12.685-44.408,24.045-66.329,36.534l-2.164,0.345c-26.584-12.625-51.168-29.217-77.756-41.863
		c-0.654-2.959,2.188-1.702,3.996-3.985C90.821,190.788,92.154,190.122,94,190z"/>
	<path style="fill:#EC6540;" d="M163,87c-5.746,1.49-15.039,10.356-20.437,9.969c-3.844-0.276-9.825-5.46-13.513-7.521
		c-2.577-1.44-5.907-0.543-5.069-3.949l40.356-22.335l39.673,22.347c-0.015,2.441-16.888,11.519-19.49,11.568
		C179.64,97.169,170.544,88.319,164,87H163z"/>
	<path style="fill:#EC6540;" d="M204,228c9.902-5.599,19.813-11.24,29.722-16.849c1.235-0.198,11.77,4.447,12.113,5.006
		c0.429,0.7,0.43,5.992,0.001,6.687C244.921,224.325,218.885,237.077,215,239C209.434,238.461,198.393,233.741,204,228z"/>
	<path style="fill:#F06E48;" d="M160,248c4.22-1.262,6.22-0.596,6,2c4.552-2.519,14.496,7.599,10,11
		c-0.26,0.139-0.712,1.353-1.625,1.836c-1.584,0.838-9.172,5.1-9.862,5.123c-2.315,0.076-7.311-3.754-9.513-4.959
		c-2.718-2.01-1.596-3.209,1.031-4.387c3.42-8.665,0.743-8.869-8.031-0.613c-3.54-1.772-6.029-2.811-10-5
		c-0.657-0.712-1.339-1.577-1.185-2.473c0.291-1.692,8.01-8.499,10.185-9.527C151.55,243.058,155.643,245.631,160,248z"/>
	<path style="fill:#F06E48;" d="M92,227c-0.44-0.25-2.056,0.074-2.994-0.465c-1.262-0.726-6.639-3.36-6.843-3.691
		c-0.424-0.684-0.398-6.25-0.006-6.701c0.437-0.503,11.234-5.256,12.286-5.154c0.627,0.061,6.652,3.299,7.875,3.99
		c0.907,0.513,0.592,1.964,0.682,2.021c1.897,2.663-0.325,3.981-2.834,5.1C96.32,222.928,94.41,224.176,92,227z"/>
	<path style="fill:#EC6540;" d="M115,223c-3.128,5.006-8.581,10.248-15,9c-2.88-1.633-5.663-3.673-8-5
		c-0.757-7.835,8.231-4.029,11-10C105.223,218.397,111.623,221.122,115,223z"/>
	<path style="fill:#EC6540;" d="M189,237c6.211-3.604,14.9,0.668,17,7c-4.494,2.536-9.336,5.407-14,8
		c-2.238-3.351-4.541-4.977-8.323-6.739c-2.128-1.939-3.609-3.333-0.677-5.261C185.197,238.942,186.004,237.434,189,237z"/>
	<path style="fill:#F06E48;" d="M115,223c3.398,1.89,6.851,4.221,10,6l0.14,2.325l-9.018,4.559c-1.742,1.844-3.45,2.549-5.122,2.116
		c-3.505-1.994-7.398-3.958-11-6c0.906-2.763,4.045-1.554,5.961-2.537C108.95,227.931,111.124,222.827,115,223z"/>
	<path style="fill:#F06E48;" d="M204,228c-0.893,5.184,4.369,7.105,8.029,8.515c1.554,0.599,3.563-0.253,2.971,2.485
		c-1.706,3.244-6.413,3.54-9,5c-3.095-0.791-4.688-3.931-7.282-5.211c-1.7-0.839-8.045-2.031-9.718-1.789
		C193.399,233.049,198.941,230.861,204,228z"/>
	<path style="fill:#F06E48;" d="M142,239l-0.05,2.293c-2.884,2.392-11.314,6.72-14.95,5.707c-2.927-1.63-6.056-3.346-9-5
		c-0.098-0.964-0.046-2.303,0.614-2.488c5.041-1.411,6.565-1.985,10.079-7.408L131,232C134.654,234.074,139.721,235.17,142,239z"/>
	<path style="fill:#EC6540;" d="M131,232c-1.003,2.584-6.254,7.795-8.48,9.109c-1.966,1.16-3.357-0.527-4.52,0.891
		c-2.291-1.288-4.809-2.754-7-4c2.844-4.756,9.646-5.768,14-9C126.716,229.969,128.826,230.766,131,232z"/>
	<path style="fill:#F06E48;" d="M183,240c-0.34,6.175,10.719,4.161,9,12c-1.539,0.855-3.727,2.742-6,4
		c-4.999-2.39-9.701-5.261-14.104-8.612L173,245C174.428,244.849,180.891,241.016,183,240z"/>
	<path style="fill:#EC6540;" d="M147,241c-0.063,4.791-7.979,7.095-9,12c-3.443-1.898-7.423-4.009-11-6l15-8
		C145.139,238.619,145.458,240.303,147,241z"/>
	<path style="fill:#EC6540;" d="M173,245c1.318,5.561,13.3,5.187,13,11c-3.473,1.922-6.758,3.262-10,5
		c-0.676-5.408-5.537-8.72-10-11c-1.219-2.437,0.781-4.104,6-5C172.041,245.047,172.707,245.031,173,245z"/>
	<path style="fill:#EC6540;" d="M148,258c-1.404-3.917,10.689-10.284,11.995-8.995c-0.781,2.806-1.345,7.931-2.167,10.354
		c-0.555,1.635-3.481,1.174-2.828,3.641C152.292,261.517,148.407,258.204,148,258z"/>
	<path style="fill:#304765;" d="M115,132c-3.509,0.977-4.416,3.238-4.904,6.596c-1.067,7.352,1.682,27.737-1.096,32.404l0.01-43
		C111.556,128.318,113.506,131.075,115,132z"/>
	<path style="fill:#304765;" d="M218,129c0.726,3.184-0.514,8.486-0.01,11.995L210,134c1.219-0.753,6.695-5.872,7.505-5.98
		C218.117,128.183,217.907,128.592,218,129z"/>
	<path style="fill:#304765;" d="M160,248c3.7-0.998,4.469-3.983,8.768-4.777c4.767-0.88,2.69,1.145,3.232,1.777
		c0.615,3.239-4.395,2.375-6,5C164.78,249.376,162.585,249.406,160,248z"/>
	<path style="fill:#304765;" d="M103,175c8.271,7.971,1.577,8.213-5,3C99.446,177.246,101.398,175.925,103,175z"/>
	<path style="fill:#304765;" d="M289,90v7C286.027,98.542,285.686,88.851,289,90z"/>
	<path style="fill:#304765;" d="M289,153v7C286.027,161.542,285.686,151.852,289,153z"/>
	<path style="fill:#304765;" d="M94,190c-1.111,0.595-2.024,2.276-4,2C90.521,191.342,88.764,189.043,94,190z"/>
	<path style="fill:#FEFEFE;" d="M84,184c-0.469,0.156-0.783,1.138-2,1c-0.63-0.296-0.616-0.63,0-1c-0.02-0.332,0.027-0.669,0-1
		L84,184z"/>
	<path style="fill:#304765;" d="M164,87l-0.5,0.98L163,87C163.206,86.947,163.392,85.855,164,87z"/>
	<path style="fill:#788BA0;" d="M82,185c-0.447-0.051-0.801,0.07-0.982-0.508L82,184V185z"/>
</g>
<g>
</g>
<g>
</g>
<g>
</g>
<g>
</g>
<g>
</g>
<g>
</g>
<g>
</g>
<g>
</g>
<g>
</g>
<g>
</g>
<g>
</g>
<g>
</g>
<g>
</g>
<g>
</g>
<g>
</g>
</svg>
