<?xml version="1.0" encoding="utf-8"?>
<!-- Generator: Adobe Illustrator 29.8.2, SVG Export Plug-In . SVG Version: 9.03 Build 0)  -->
<svg version="1.1" id="图层_1" xmlns="http://www.w3.org/2000/svg" xmlns:xlink="http://www.w3.org/1999/xlink" x="0px" y="0px"
	 viewBox="0 0 1100 365" style="enable-background:new 0 0 1100 365;" xml:space="preserve">
<g>
	<rect x="0" style="fill:#FEFEFE;" width="1100" height="365"/>
	<path style="fill:#06234B;" d="M235,74c0.895-0.016,2.797,1.288,3.586,2.003c3.38,5.026,8.189,9.421,13.414,4.997
		c8.764,4.757,17.93,9.062,26,15l0,114.317L277,211c-8.966-3.532-19.25-9.044-27.672-13.828c-2.757-1.566-10.125-5.136-11.328-7.172
		c0.762-1.649,0.762-1.649,0,0l-1.005-65.995l-85.51,50.951c-26.122-14.288-50.305-32.116-76.177-46.765
		c-2.2-1.246-7.72-5.374-9.309-3.191v65c-1.971,3.337-25.701,14.245-31,17l-4.45,1.091c-1.6,1.375-4.064,3.453-4.533,1.149L26,96
		l41.44-23.009l84.896,51.78L235,74z"/>
	<path style="fill:#07244C;" d="M383,212c-0.08,2.325,0.063,4.681,0.005,7.006c-7.97,0.382-16.224-0.984-23.998,0.991
		l12.002-116.988l29.877,0.111l31.614,75.89l31.636-75.875c9.408-0.749,19.15,0.875,28.408-0.883l13.48,115.272
		c-0.495,3.553-2.078,1.475-2.523,1.475H482c-1.123-12.456-1.753-25.048-3.004-37.496c-1.131-11.254-5.227-31.202-3.996-41.504
		c-1.078-3.817-0.397-6.032,2.042-6.644c-3.726-5.496-12.437,6.407-12.951,8.592c3.532,1.118,4.835,2.802,3.91,5.053
		c-1.378,3.172-2.517,6.598-4,10c-6.958-3.113-15.963,11.356-7.018,12.966c-1.832,5.167-1.826,6.179,0.018,3.034l-13.406,33.094
		c-2.319,1.801-18.864,1.297-22.594-0.094c1.79-2.374,1.79-2.708,0-1l-29.014-68.998c-1.429-1.447-1.812,0.095-1.988,1.48
		c-0.419,3.288,1.148,7.696-0.998,10.518c-5.621,0.693-7.892,1.105-1.491,4.307c0.27,2.875,0.434,5.773,0.491,8.693l-5,48
		C381.914,207.568,382.552,210.748,383,212z"/>
	<path style="fill:#07234B;" d="M271.997,226.014l-1.653,2.831L152.35,293.791c-40.997-20.896-80.285-45.151-121.348-65.803
		c4.458-3.116,36.641-21.965,39.073-21.513l81.492,44.521l3.829-1.1l77.358-42.733C239.396,206.039,263.646,224.359,271.997,226.014
		z"/>
	<path style="fill:#F36742;" d="M242,262c3.913,1.611,7.815,0.631,11.706-2.941l6.411-1.346c1.453-3.388,3.414-4.293,5.884-2.713
		c6.964,3.364,16.874,5.703,12.013,15.513l-126.526,69.446L25.985,270.515c-1.66-1.859-1.505-7.096-0.063-9.093
		c0.883-1.223,18.046-11.453,20.459-8.325l105.286,58.687C182.011,295.627,211.825,278.455,242,262z"/>
	<path style="fill:#F36943;" d="M1056,106c-3.929,2.351-3.5,4.067,1.361,6.05c2.297-0.674,4.177-0.691,5.639-0.05
		c2.439,2.945,3.338,4.629,5,8l0.181,3.735c-3.177,3.889-2.894,7.117,2.706,6.248c1.551,20.523,1.589,41.195,0.113,62.017
		c-1.596,8.121-7.233,18.603-14.062,23.438c-0.815,0.577-6.07,3.562-6.438,3.562H979V103l70.519-0.022
		C1052.403,102.744,1054.018,104.862,1056,106z"/>
	<path style="fill:#F26743;" d="M876,218c-1.7-1.235-1.003-1.944,0.203-3.151c-2.745-2.696-5.813-4.979-9.203-6.849
		c-2.497-6.382-2.219-11.183-2-18h24c0.365,0-0.303,5.578,0.205,7.298c0.248,0.841,3.001,3.702,3.295,3.702h38
		c3.748,0,2.693-21.471,1.824-24.822c-3.198-12.337-25.715-5.387-35.33-7.172L897,160l0.928-2.54
		c3.982,2.623,8.46,1.048,13.435-4.725l4.761-0.303c6.771,0.928,16.347,0.921,15.876-6.432c0.733-5.336,3.334-22.112-2.023-24.477
		c-3.199-1.412-27.998-0.692-33.527-0.564c-2.021,0.047-3.948,1.019-5.45,1.041c-2.629,1.188-3.419,4.367-2.371,9.536L888,132
		c-6.754,0.821-15.045,0.787-22,0c-0.747-3.737-0.747-7.737,0-12c1.449-7.715,5.579-15.953,14.477-17.023
		c19.774-2.376,44.49,1.624,64.786,0.26c5.588,1.014,10.893,7.789,11.648,13.352c0.785,5.778,0.798,23.016-0.149,28.674
		c-1.026,6.131-5.526,10.189-9.744,14.238c4.54,4.263,9,8.517,9.894,15.087c0.87,6.389,0.823,23.412,0.09,29.916
		c-0.792,7.029-5.072,13.672-12.48,14.52c-20.704-1.418-43.673,1.809-64.093,0.019C878.459,218.869,877.746,218.613,876,218z"/>
	<path style="fill:#06234C;" d="M763,136c0.873,0.284,0.86,0.618,0,1l-0.139,1.1c17.642-0.434,36.355-0.801,56.139-1.1
		c-0.784-0.5-0.451-0.833,1-1c6.449,0.71,12.865,5.429,14.528,11.972C835.931,153.49,835.4,170.505,834,176
		c-3.016,3.797-9.946,7.703-14.746,8.292c-0.349,0.043-0.641,0.556-0.916,1.203l-35.843,0.073
		c-6.49-1.188-11.655-1.044-15.494,0.432v1l-1.739,6.484c-2.572,2.374,1.306,3.768,3.111,3.798L770,200l5.476,2.026L835,202v17
		h-76.5c-4.098,0-11.749-9.175-12.436-13.564c-1.547-9.893-1.191-43.471-0.067-53.939C747.015,142.02,753.872,136.756,763,136z"/>
	<path style="fill:#07234C;" d="M641,219l-1-122h23v70c2.203-0.337,4.759-2.607,6.473-4.027c4.6-3.81,27.724-26.315,30.527-26.973
		c8.724,0.203,17.391,0.536,26,1l-34.927,31.639C699.305,180.066,708.32,190.929,717,202c0.416,0.663,0.966,1.708,0.574,2.111
		c-1.235,1.271-13.305,11.378-14.206,11.542c-0.859,0.157-1.663-0.194-2.368-0.653c-8.398-9.843-17.423-20.695-25-31
		c-0.569-0.59-1.098-1.13-2-1c-0.371,0.256-0.655,0.698-1,1l-2,1c-1.22,0.83-8,5.985-8,6.5V219c-6.756-0.5-14.37,0.683-21,0
		c-0.866-2.441-0.734-6.417,0-9c1.47-12.457,1.547-25.114,0.232-37.971c0.994-5.593,1.07-10.689,0.229-15.288l-0.244-49.315
		c0.557-3.362,0.485-6.171-0.217-8.426C642.104,139.131,641.771,179.131,641,219z"/>
	<path style="fill:#F26844;" d="M213.998,60.986l-30.427,16.047c-11.1-5.237-21.178-13.314-32.848-16.882l-31.228,16.783
		c-3.407-2.644-29.484-14.756-29.505-16.444c-0.022-1.794,1.148-1.914,2.314-2.687c14.066-9.315,37.779-22.557,53.028-29.972
		c2.098-1.02,4.745-2.973,7.092-2.821l59.92,33.146L213.998,60.986z"/>
	<path style="fill:#06234B;" d="M613,147c-0.148,1.765-0.148,3.598,0,5.5c0.947,21.58,0.947,43.413,0,65.5
		c0.425-21.872,0.758-43.872,1-66l1.005,67.005l-75.524,0.017c-2.879,0.139-4.454-1.716-6.481-3.022c3.337-6.801,11.45-11.403,19-12
		c1.568-0.782,1.568-1.115,0-1c-2.959,3.565-4.986-2.371-1-1c0.004-0.773,0.177-1.956,0.674-2c9.736-0.868,29.565-1.033,39.15,0
		l1.176,2c-0.775-0.186-1.718-0.439-2-1.124c-0.538-1.308-0.865-15.612,2-15.876c-0.005,0.774-0.176,1.95-0.682,2
		c-9.135,0.907-28.524,0.94-37.627,0l-1.191-2c0.687,2.489-2.054,5.218-4.5,4c-0.59,2.966-0.853,6.23-0.007,9.087l-5.704,3.872
		C534.326,212.936,528.896,214.616,526,207c-0.054-0.321,0.034-0.671,0-1c-0.734-2.663-0.824-5.453-0.27-8.369
		c5.454-1.249,10.656-3.373,15.433-6.289c-9.875-3.731-11.246-5.457-4.429-14.844c-3.457-0.191-5.368-1.357-5.735-3.499
		c0.333-0.315,0.641-0.747,1-1c2.464-1.471,5.214-2.33,8-3c0.319-0.063,0.674,0.048,1,0c4.898-0.989,3.16,1.909,0.638,4.428
		c2.77,1.341,20.48,1.775,23.012-1.626c4.026,0.602,7.476,0.001,10.349-1.803c-0.096,0.389-0.225,0.73-0.472,0.903
		c-1.523,1.063-19.498,1.574-22.07,1.097L551,170c-0.873-0.284-0.86-0.618,0-1c13.33-0.885,26.997-0.885,41,0
		c0.055,4.499,1.896,3.131,3.246-0.357c-1.053-0.954-1.742-9.997-1.489-11.785c2.753-0.336,5.229-1.162,7.427-2.478
		c-4.975-6.505-0.457-8.671,5.509-11.154c-1.508-1.978-1.436-3.801,1.307-3.226C610.796,141.897,611.944,143.81,613,147z"/>
	<path style="fill:#07254E;" d="M599,137c2.119-0.732,4.962,0.828,7,2c1.091,0.389,1.056,0.36,2,1
		c-2.07,0.814,1.768,1.854,0.578,4.02c-1.246,2.268-8.005,2.92-7.626,5.451c0.826,5.513,6.223,2.056,8.404,3.592
		c1.281,0.902,2.562,3.003,1.639,3.931c-1.073,1.08-4.974-2.004-6.502-1.965c-1.644,0.041-2.9,1.952-4.445,2.529
		c-1.52,0.568-4.862,0.27-5.047,0.444c-0.303,0.285-0.222,7.324,0.017,8.321c0.209,0.875,3.062,0.182,1.791,3.957
		c-1.631,4.845-8.662,4.532-7.809,1.23c0.335-1.296,3.267-0.858,3-2.51h-41v1h24c-0.58,5.874-6.683,2.771-9.045,3.416
		c-1.383,0.378-2.444,2.146-4.5,2.541c-2.631,0.506-20.429,0.305-21.355-1.051c-2.666-3.905,6.319-5.906,0.9-5.906
		c0.533-0.079,1.494-0.94,3.381-1.074c15.368-1.09,32.11,0.958,47.624,0.079L592,158c1.218,0.129,0.884-0.537-1-2
		c-1.356-0.977-2.616-2.073-4-3c-0.901-0.091-1.234-0.424-1-1c-0.87-0.098-1.204-0.431-1-1c-2.895-2.032-0.02-4.471,2.361-6.157
		c8.548-4.16,9.646-5.778,3.292-4.854L589,138c-0.873-0.284-0.86-0.618,0-1C591.256,135.579,596.278,135.958,599,137z"/>
	<path style="fill:#09254F;" d="M801,287c-0.059-0.691-1.304-0.99-0.552-2.018c1.357-1.855,9.007-4.138,10.547-7.487
		c-1.305-1.317-7.437,0.075-8-0.49c-0.424-0.425,0.318-10.111,0-12.01c18.151,0.891,11.316-5.94-2-3.999
		c-1.232-3.726,3.218-3.838,6.516-4.092c4.231-0.325,6.827,3.329,6.495-3.911c5.204-1.406,2.32,4.554,4.461,4.866
		c2.399,0.35,13.438-4.072,11.028,3.147c-13.727-1.89-18.752,5.07-1.488,3.989c-0.318,1.9,0.425,11.586,0,12.01
		c-0.266,0.266-6.05-0.083-7.525-0.006c-1.126,0.059-2.742-0.654-2.473,0.988c2.349,0.68,10.446,4.514,11.56,5.994
		c0.253,0.336-0.457,2.914-0.57,3.018c-0.888,0.816-8.355-4.157-9.997-5l-1.036,0.592c1.241,8.72-5.624,11.187-6.332,1.881
		C808.757,286.83,803.639,290.944,801,287z"/>
	<path style="fill:#0B254A;" d="M499.002,273.987c8.14,1.741,8.17,14.423,1.269,17.784c-5.465,2.662-15.619,2.249-18.511-4.036
		c-2.374-5.159,3.602-5.253,4.206-4.71c0.184,0.166,0.028,2.765,1.948,4.555c10.945,10.206,21.64-14.957,1.082-11.585
		c-2.25-6.846,7.201-2.312,9.514-6.978c3.818-7.702-5.99-13.539-10.574-7.547c-1.926,2.518,0.572,4.549-5.93,3.525
		C486.277,245.007,516.305,258.829,499.002,273.987z"/>
	<path style="fill:#0B244B;" d="M685,273c-0.966-0.925-1.057-0.698-0.959-2.311c0.34-5.629,2.067-11.939,1.968-17.692
		C692.169,250.478,689.5,259,690,259h29c0.2,0,0.2,4,0,4h-28.5c-1.767,0-1.669,5.586-1.5,7h28c-0.907,2.345-0.686,4.733-1,7
		c0.027,3.723-0.307,7.39-1,11c-0.045,0.655,0.103,1.393,0,2l-1,2c-0.177,0.262-0.733,0.813-1,1c-5.128,1.171-10.816,2.161-16,1
		c-0.16-0.371,0.053-1.368,0-2c0.284-0.873,0.618-0.861,1,0c0.689,0.501,1.276,0.347,2,0c1.267-1.257,3.518-0.924,5,0
		c1.541,0.704,2.874,0.704,4,0c-0.873-0.284-0.861-0.618,0-1c1.52-0.158,1.853-0.491,1-1c0.065-0.028,0.82-0.784,1-1l1-6
		c0.063-0.976,0.042-2.021,0-3c0.789-3.198,0.462-5.436-0.98-6.714C702.368,273.861,693.695,273.765,685,273z"/>
	<path style="fill:#0B244A;" d="M859,261c0.865,0.334,0.865,0.667,0,1c0.901,0.241,0.878,0.576,0,1
		c0.108,1.141-0.233,4.772-0.005,5.006c0.721,0.739,9.714-1.495,10.998,1.502c1.919,4.48-8.274,1.81-10.996,2.497
		c-1.975,7.785,7.974,3.957,9.008,4.991c0.424,0.424,0.156,10.269-0.005,12.005c-1.096,2.538-4.902,3.267-7,2
		c-3.177-2.628,1.457-6.606,3-2c1.548-1.618,1.882-3.951,1-7l-4.06,0.251c-0.018,2.527-0.487,11.467-1.563,12.896
		c-0.768,1.021-3.312,0.395-4.377-0.148c-0.767-2.247,0.706-14.32,0.005-15.005h-5.011c-0.306,1.896,0.435,11.595,0.001,12.01
		c-0.144,0.138-3.846,0.138-3.991,0c-0.546-0.521-0.358-13.27,0.995-15.005c0.238,0.709,0.575,0.682,1,0
		c2.272-0.232,4.712,0.17,7.005,0.005l0-5.01l-11,0c-0.441-5.362,2.497-3.083,5.995-2.995c7.832,0.518,8.091-9.31,0-6
		c-0.402,0.3-0.698,0.601-1,1c-0.682,2.251-1.682,2.918-3,2c-1.471-1.48-0.526-1.348,0-3l1-2c0.063-0.321-0.065-0.68,0-1
		l4.172-0.702c0.835,1.771,3.468,1.999,4.189,0.147C856.062,248.412,858.376,255.672,859,261z"/>
	<path style="fill:#09244C;" d="M649,295c-0.921,0.309-2.834-0.19-4.005,0.005L645,257h18c-0.785,8.361,1.041,18.432,0.052,26.561
		c-0.3,2.464-0.329,2.192-2.052,3.439l-2,1c-1.105,0.195-2.756,0-4,0c-1.008,0.619-1.986,0.664-3,0c-0.152-0.165,0.127-0.686,0-1
		c-0.967-2.047,1.367-3.047,7-3l-1.892-1.139l-0.125-20.542c-5.424-2.181-7.529,0.094-6.315,6.825
		C651.399,278.287,650.486,286.17,649,295z"/>
	<path style="fill:#07254E;" d="M531,173l8.006,2.006c0.282,4.101-4.277,6.43-4.941,10.391c0.624,2.777,10.466,2.113,8.905,7.032
		c-0.307,0.968-14.65,8.022-16.961,6.567c0.149,2.288-0.244,4.738-0.009,7.004c-1.658-1.04-0.996-3.794-1.017-5.486
		C524.853,190.059,522.935,180.649,531,173z"/>
	<path style="fill:#0D2545;" d="M547,260c1.857,2.271-0.94,3.983-3,2c-4.135,0.674-13.005,1.094-16-2
		c0.779,0.096,1.916,0.326,2,0.909c0.685,4.741,0.637,21.789,0,26.62L528,289c0.674-3.207,8.836-2.752,10,0
		c6.053-0.341,1.897,3.063-2.507,1.624c2.129-0.174,3.297,0.285,3.507,1.376c-5.395,0.924-10.381,1.398-16,1v-37h17.5
		C542.599,256,545.564,258.822,547,260z"/>
	<path style="fill:#0B2750;" d="M578.995,253.005c1.252,1.239-3.258,10.612,6.011,9.5c0.786,5.306-4.716,2.079-5.538,3.432
		c-1.168,1.923-0.184,5.768-0.458,8.062c2.281-2.161,9.693-1.998,6.987,1.988c-0.413,0.609-6.087,0.359-6.87,2.64
		c-1.181,3.442,1.132,11.424-0.616,14.385c-1.194,2.022-7.654,2.966-9.068,1.042c-3.323-4.52,3.772-2.089,5.123-3.99
		c1.304-1.834-0.025-8.459,0.427-11.061c-4.19,0.672-7.924,3.31-7.036-2.477c0.153-0.998,6.313-0.898,6.937-1.629
		c0.289-0.338,0.428-8.591,0.111-8.903c-1.207-1.185-7.859,2.861-6.01-3.99c9.641,1.139,4.486-1.917,6.162-7.349
		C575.661,253.022,578.337,252.353,578.995,253.005z"/>
	<path style="fill:#0B254A;" d="M641.995,254.005c4.069,4.032-11.729,5.405-12.056,6.605c-0.549,2.014,0.495,6.003,0.056,8.395
		c1.896,0.306,11.595-0.435,12.01-0.001c0.138,0.144,0.138,3.846,0,3.991c-0.414,0.434-10.114-0.307-12.01-0.001l0.01,12.002
		c1.012,1.062,11.003-4.063,11.99-2.992c0.132,0.143,0.17,3.544-0.111,3.884c-0.498,0.602-14.204,4.947-14.915,4.625
		c-3.315-1.5-0.93-5.47-0.92-7.975c0.033-8.478-0.217-16.977,0.054-25.44C628.702,257.238,640.809,252.83,641.995,254.005z"/>
	<path style="fill:#0A2246;" d="M757,267c-2.84-4.861,3.891-6.972,3.521-2.714l0.329,8.762c2.719,0.032,2.495,0.749,0.15,1.952
		c0.239-2.848,4.478-2.847,5,0c1.291-4.475,9.825,1.378,6,3c-3.265,0.46-6.836,0.349-9.994,1.494
		c-0.063,4.89,12.979,11.103,12.976,12.004c-0.001,0.201-2.345,2.112-2.021,3.48c-6.869-1.932-10.417-7.747-14.466-12.972
		c-1.763,3.761-5.392,8.185-8.495,10.995c-1.389,1.144-2.722,1.477-4,1c-0.678-0.225-1.315-0.75-2-1c-1.034-3.76,5.429-9.078,9-8
		l1-2c-1.407-0.636-1.473-1.664-1.228-2.998c-12.924,1.435-10.583-9.676,1.723-6.828C754.311,269.663,755.146,267.604,757,267z"/>
	<path style="fill:#F1F3F5;" d="M757,267c-0.318,1.547,0.281,6.966-1.142,7.861c-1.402,0.882-7.63-0.341-9.863,0.143v2.991
		l9.007,0.009c0.308,1.917-0.3,3.31-1.002,4.996l-1,2c-1.869,2.371-8.126,5.536-9,8c-0.891,2.511,1.184,5.122-5,2
		c0.818-1.202,1.546-2.272,2.185-3.209l-0.187-25.443c0.815-1.511,2.816-2.628,6.002-3.348c0.292,0.091,0.674-0.078,1,0
		C751.95,260.845,760.006,261.528,757,267z"/>
	<path style="fill:#0D2850;" d="M610,257l0.007,2.996c-2.16,0.14-6.041-0.871-6.867,1.643c-2.153,6.551,1.793,22.086-0.581,29.419
		c-1.679,5.185-12.532,6.1-13.559-0.049c3.124-0.15,8.665,1.149,9.798-2.711c1.918-6.533-1.008-19.952,0.206-27.304
		c-1.307-1.308-14.759,3.056-13.005-3.995H610z"/>
	<path style="fill:#021A46;" d="M26,96l1.01,112.995c1.956,0.304,0.543-2.316,0.995-3.006c0.194-0.296,5.91,0.871,6.994,1.011
		c-1.388,0.722-9.08,6.022-9.995,4.995L26,96z"/>
	<path style="fill:#F2F3F5;" d="M659,284c-4.011-0.238-6.678,0.429-8,2c-1.245,3.103-0.501,8.498-2,9
		c1.015-5.433-1.534-31.239,0.437-34.064c1.062-1.522,8.609-1.791,9.424,0.703C659.252,262.836,659.358,282.941,659,284z"/>
	<path style="fill:#00173D;" d="M278,96l1.005,115.497c-1.181,1.865-1.86-0.439-2.005-0.497L278,96z"/>
	<path style="fill:#0D294D;" d="M940,292c-0.305,1.147,0.873,1.82-1.441,2.071c-5.095,0.554-18.024,0.559-23.082-0.048
		c-4.633-0.556-8.455-4.987-8.977-4.991c-0.792-0.007-4.94,6.311-6.494,4.962c-2.88-2.5,3.442-5.744,3.97-8.516
		c0.273-1.433,0.508-13.009,0.028-13.483c-0.248-0.245-3.391,0.142-4.499,0.011c-2.258-5.409,5.179-3.918,8.494-4.006v17.5
		c0,0.248,2.932,3.015,3.627,3.373c6.861,3.532,20.776-1.1,28.373,2.127C939.231,291.478,939.231,291.811,940,292z"/>
	<path style="fill:#0F284E;" d="M925,254c4.373-4.64,3.706,4.69,3.998,5.005c0.638,0.689,8.533-1.405,9.992,1.51
		c0.474,2.433-1.944,1.412-3.482,1.484c-4.528,0.213-8.284-1.43-7.511,4.996c1.895,0.323,11.594-0.425,12.008,0.009
		C940.142,267.149,940.2,271,940,271h-29c-0.754-9.026,16.032,1.281,13.054-8.531c-1.067-0.608-4.952-0.817-6.054-0.469
		c-1.311,0.294-1.683,0.712-2,2c-0.166,0.166,0.167,0.847,0,1c-6.563,1.968,2.117-13.736,2.579-6.012
		C923.642,261.592,924.941,259.117,925,254z"/>
	<path style="fill:#F26E4A;" d="M932,146c0.11-0.053,2.49-0.176,1.958,1.448c-3.804,11.611-13.077,5.326-20.4,6.592
		c-5.512,0.953-5.043,7.564-13.107,7.072c-2.276-0.139-0.667-3.397-3.451-1.113c0.002-2.993-0.001-6.008,0-9h28.5
		C926.8,151,930.214,146.855,932,146z"/>
	<path style="fill:#062044;" d="M722,209c4.321,5.282-3.591,8.353-8,10c-3.42-0.061-6.866,0.082-10.291,0.018
		c-0.949-0.234-1.82-2.976-2.709-4.018l16-13C718.759,204.244,720.402,206.971,722,209z"/>
	<path style="fill:#0B2347;" d="M770,200l-9.003-3.521L767,187c0.772,2.528,0.7,0.706,0-1c0.006-0.073-1.551-0.307-0.055-1.459
		c4.134-3.185,8.709,0.215,13.52,0.494c12.255,0.712,25.205-0.591,37.531-0.045l-1.99-1.98c6.555-0.344,11.772-5.229,17.995-7.01
		c-1.023,4.012-4.888,10-9.5,10h-54C768.03,186,768.848,197.834,770,200z"/>
	<path style="fill:#0D264B;" d="M739,295c1.151-5.19-1.515-40.555,0.005-42.005c0.255-0.243,3.022,0.165,3.991,0
		c0.567,6.765-2.607,7.945,4.005,10.004c-0.436,1.414,3.39,4.995,0.49,5.99c-3.85,1.321-1.772-3.555-4.48-3.99
		c-0.491,9.345,0.628,19.252-0.002,28.531C742.815,296.38,740.534,294.575,739,295z"/>
	<path style="fill:#112C52;" d="M880,253c2.402-0.272,3.555,0.018,4,2.5c0.76,4.234,0.755,30.787-0.026,34.974
		c-1.052,5.64-12.016,7.226-11.974,0.536c1.602,0.076,8,0.424,8-1.51V253z"/>
	<path style="fill:#07254E;" d="M551,202c0.012,0.069-1.132,0.382-1.01,0.981c0.664,0.06,1.342-0.015,2.01,0.019
		c0.873,0.284,0.86,0.618,0,1c-2.606,3.724-8.369,3.884-10.946,5.554c-1.887,1.223-3.739,5.793-8.054,6.446
		c-3.603-2.321-6.193-4.217-7-9l2.478,3.973c6.148-1.677,8.649-6.817,12.485-10.507c1.287-1.238,5.661-3.363,5.832-3.662
		c0.969-1.69-0.676-4.522,1.205-7.804c1.895,1.157,2.608,3.761,2.139,7.812C552.035,198.996,552.322,200.726,551,202z"/>
	<path style="fill:#0F2C54;" d="M748,263c4.258-6.884,10.723,2.935,9.005-9.996c5.837-1.456,3.334,6.318,3.99,7.002
		c0.423,0.442,9.563-0.46,10.01-0.012c0.62,0.621-0.71,11.032,0.117,13.384c0.833,2.368,6.143,0.526,3.263,4.636
		c-0.777,0.065-1.626-0.122-2.385-0.015c0.995-2.446-3.593-2.617-6-3l-1.469-1.456c2.299-10.046-2.624-10.846-1.66,0.055L761,275
		l-1.005-10.995c-1.864-0.828-2.807,2.081-2.995,2.995C757.12,263.269,751.592,263.854,748,263z"/>
	<path style="fill:#000232;" d="M975.5,276c-1.72-0.404-1.358-2.905-0.016-2.968c0.539-0.025,2.834,1.222,5.01,1.068
		c7.258-0.514,11.202-0.117,17.965-0.059c20.683,0.177,41.376-0.215,62.059-0.043L1062,276H975.5z"/>
	<path style="fill:#7D859D;" d="M362,274l88.006-0.495l-1.475,2.503L362,275c26.938-0.608,54.227-0.774,81.868-0.5
		C416.396,274.775,389.107,274.608,362,274z"/>
	<path style="fill:#0E264C;" d="M797,269c0.327,5.644,0.661,11.31,1,17c0.247,0.418,1.547,1.685,2,2c4.633-0.581,7.3,0.419,8,3
		c6.757,0.429,13.572,0.631,20.447,0.605c1.471,0.778,1.095,1.756-0.447,2.395c-5.174,0.548-19.555,0.732-24.447-0.053
		c-3.044-0.488-5.396-3.633-7.225-3.808c-2.187-0.209-4.687,5.23-6.321,3.855c-3.065-2.579,3.218-5.917,3.993-6.994
		c0.405-2.939,1.531-11.998-0.204-14.218c-0.472-0.603-1.912-0.897-2.796-0.782c-0.31,0.079-0.678-0.059-1,0
		c-0.767-0.87-0.83-2.182,0-3C790.245,268.75,796.406,268.808,797,269z"/>
	<path style="fill:#072246;" d="M464,157c-2.309,5.297-3.632,11.151-7,16c-0.573,0.826-0.867,2.219-1.992,1.993
		c2.863-6.206-1.851-2.735-3.536-5.978c-1.598-3.076,2.724-11.413,5.118-12.924c1.421-0.896,3.923-1.192,5.635-1.379
		C465.531,154.351,463.901,153.546,464,157z"/>
	<path style="fill:#092245;" d="M468,147c-1.194-2.721-6.064-2.175-6.036-5.501c0.006-0.677,7.899-10.151,8.462-10.568
		c5.834-4.314,14.54,6.463,5.579,4.061c0.899,1.938-0.896,4.101-1.005,5.007l-1.987-3.993C472.259,139.884,469.484,143.583,468,147z
		"/>
	<path style="fill:#132E53;" d="M937,275v12h-22c-0.318-3.784,0.933-8.107-0.969-11.519c0.015-0.583,0.631-0.404,0.969-0.481
		C922.29,274.065,929.624,274.065,937,275z"/>
	<path style="fill:#F36E4A;" d="M266,255c-3.061-0.191-3.114,3.493-5.013,4.487c-1.699,0.89-4.472,0.586-6.567,1.433
		c-4.014,1.622-5.547,6.172-11.409,3.052L242,262c3.881-2.117,14.27-9.316,17.735-9.831C262.835,251.708,264.081,254.073,266,255z"
		/>
	<path style="fill:#001A41;" d="M66,190v-65V190z"/>
	<path style="fill:#00133E;" d="M642,99c2.745-0.217,2.92,3.767,0.477,4.092c-0.263,19.052-0.507,38.714,1.11,57.799
		c-1.68,12.317-1.701,24.838-0.062,37.565L642,210v9c-0.329-0.034-0.669,0.026-1,0L642,99z"/>
	<path style="fill:#F4724D;" d="M1071,192l-0.01-60.995l-1.48,1.987c-9.143-3.816-4.833-6.533-1.51-12.992
		c1.72,3.489,3.541,6.457,4.003,10.497C1073.423,142.934,1073.289,180.355,1071,192z"/>
	<path style="fill:#1A375A;" d="M708,280c0.139,0.144,0.2,4,0,4h-28.5c-1.786,0-0.74-4-0.5-4C682.921,280,706.994,278.956,708,280z"
		/>
	<path style="fill:#E8EBEF;" d="M801,287c3.182,2.578,11.889-7.268,12.995-5.995l0.01,8h2.991l0.01-8
		c1.859-0.56,1.702,0.845,1.995,0.995l-1.004,8.004L831,291l-2.291,1.364c-6.786-0.813-13.689-1.267-20.709-1.364
		c-3.405-1.581-4.667-0.683-8-3C800.269,287.715,801.018,287.211,801,287z"/>
	<path style="fill:#133055;" d="M876,258v26c0,0.2-4,0.2-4,0v-26C872,257.8,875.284,258.133,876,258z"/>
	<path style="fill:#0D2140;" d="M548,279l0.484-6.176c-1.857-7.162-0.685-8.77,3.516-4.824c1.935,8.138,2.221,15.485-5,21
		c-2.479,0.964-4.547,1.294-4-2C542.451,284.75,545.49,278.948,548,279z"/>
	<path style="fill:#0A2955;" d="M237,73c0.972,1.052,1.972,1.385,3,1c4.289,1.63,8.011,4.835,12,7l-1.005,3.994
		C242.833,85.946,238.599,80.193,235,74L237,73z"/>
	<polygon style="fill:#000131;" points="362,274 449.01,274.5 362,275 	"/>
	<path style="fill:#01153D;" d="M613,147c0.698,2.109,0.818,2.755,1,5c1.627,20.071-1.211,42.202,0,62.51l-1,3.49v-65.5
		c0-1.157-2.173-4.252-2.013-5.987L613,147z"/>
	<path style="fill:#0A274F;" d="M722,209c2.437,3.093,6.523,5.955,8,9.99c-5.319-0.05-10.681,0.104-16,0.01
		c1.562-0.941,2.294-2.664,3.63-3.83C720.725,212.469,722.16,214.477,722,209z"/>
	<path style="fill:#0F2F57;" d="M531,149l0.788,1.81c18.022,0.237,36.093,0.634,54.212,1.19c0.351,0.178,0.638,0.758,1,1
		l-57.005,0.005L530,137h1C533.968,140.262,533.867,145.636,531,149z"/>
	<path style="fill:#000832;" d="M599,136c0.873,0.284,0.86,0.618,0,1c-2.927-0.421-6.85,0.103-10,0c-18.909,0.43-38.113,0.559-57,0
		c-0.249,0.869-0.584,0.847-1,0c-0.324,0.051-0.671-0.039-1,0c1.038-1.656,3.795-1,5.486-1.017
		C554.591,135.782,580.711,134.083,599,136z"/>
	<path style="fill:#F3724D;" d="M1056,106c3.86,2.217,4.093,2.489,7,6c-5.762,5.133-13.051,0.005-11.99-7L1056,106z"/>
	<path style="fill:#D8DDE4;" d="M855,295c1.533-0.426,3.815,1.38,4.008-1.469c0.303-4.47-0.235-9.064-0.013-13.536
		c1.664,0.226,3.893-0.386,5.38-0.039c1.238,0.289,0.417,1.542,0.624,2.043c1.023,3.314,0.69,5.647-1,7
		c-0.815,0.161-2.705-0.257-3.003,0.003c-0.241,0.21,0.179,1.468,0.003,1.997c0.86,0.264,0.842,0.599,0,1
		c-0.288,0.999-0.927,3.769-1.07,3.913C859.51,296.336,855.502,296.47,855,295z"/>
	<path style="fill:#0B2142;" d="M389,148c0.028,4.465,0.113,8.624-1,13c-2.149-1.407-0.253-5.117-1.205-6.8
		c-0.287-0.508-10.132-4.056-2.496-7.505c3.357-1.517,4.224,3.526,3.712-5.689C389.878,141.567,388.989,146.328,389,148z"/>
	<path style="fill:#F47650;" d="M866,120v12h22c0.987-4.383-1.306-7.052-1.995-10.995c1.679-0.744,4.127,1.008,4.995,0.995
		c-2.851,1.721-1.43,11-2,11h-24C864.498,128.385,865.198,124.271,866,120z"/>
	<path style="fill:#F4724D;" d="M867,208c3.092-1.938,13.105,5.288,11.003,7.997L876,218C871.132,216.289,868.803,212.608,867,208z"
		/>
	<path style="fill:#000A35;" d="M820,136c-0.317,0.323-0.614,0.775-1,1c-18.695,0.863-37.361,0.863-56,0v-1
		C777.033,134.837,806.279,134.489,820,136z"/>
	<rect x="743" y="150" style="fill:#F0F1F4;" width="1" height="55"/>
	<path style="fill:#213559;" d="M737.995,262.005c0.512,0.534-1.136,9.418-1.507,11.002c-0.251,1.072-0.134,3.861-1.973,2.983
		C731.598,274.597,734.189,258.034,737.995,262.005z"/>
	<rect x="562" y="221" style="fill:#F3F4F5;" width="47" height="1"/>
	<path style="fill:#162B4C;" d="M901.004,255.005c2.458-2.869,8.967,5.881,8.978,6.494c0.007,0.402-2.255,2.999-4.002,2.071
		C904.886,262.989,900.291,255.837,901.004,255.005z"/>
	<path style="fill:#112E57;" d="M552,268l-1.989,2.994l-2.002-4.988c1.211,5.11,1.394,7.992-0.01,12.994
		c-1.71-2.181-2.524-5.182-2.442-9.002c-1.127-2.832-1.646-5.498-1.558-7.998l3-2c1.447,1.187,2.841,1.814,3.88,3.649
		C551.871,265.398,551.625,266.422,552,268z"/>
	<path style="fill:#1F355C;" d="M798.997,262.995c-3.161,3.069-9.025-6.639-7.993-7.994
		C793.795,251.338,799.808,262.043,798.997,262.995z"/>
	<path style="fill:#0F2B53;" d="M685,273c7.82-0.239,15.721,0.306,23.546,0.047c3.771-0.125,7.441-3.238,6.444,1.948l-1.98-1.99
		L712,280c-0.086-1.992,0.07-4.014,0.005-6.006C707.053,273.163,687.663,275.551,685,273z"/>
	<path style="fill:#031A3E;" d="M421,205c-0.341-3.545,0.84-1.142,2.568-1.076c5.88,0.223,11.764-0.287,17.442,1.576L421,206V205z"
		/>
	<rect x="665" y="109" style="fill:#F2F3F5;" width="1" height="36"/>
	<path style="fill:#102D56;" d="M847,260c0.208-1.021,0.923-4.908,1.505-5.007c4.708-0.8,2.274,3.787,3.448,4.518
		c5.705,3.555,0.104-7.996,7.042-6.51c-1.254,9.423,2.933,5.63,9.005,7.998c-2.513,0.598-6.469,1.005-9,0
		c-0.082-0.476-1.394-1.598-1.741-2.743c-0.418-1.378,1.22-3.131-0.764-4.252c-1.296,1.121,0.039,6.492-0.489,7
		c-0.227,0.218-5.13,0.29-6.29,0.334C848.051,261.401,848.396,262.682,847,260z"/>
	<path style="fill:#071037;" d="M808,291c7.643-0.202,15.354,0.148,23,0c-1.067,2.534-0.549,2.74-3,3
		c0.557-3.029-1.53-1.924-3.455-2c-7.159-0.283-14.387,0.216-21.54-0.01C802.948,290.184,806.729,291.034,808,291z"/>
	<path style="fill:#112D56;" d="M547,289c-3.902,2.98-3.361,2.205-8,3l-3.995-1.01l0-0.98c3.422,0.484,7.588-0.646,2.995-1.01
		c-1.331-2.654,3.336-4.237,5-2L547,289z"/>
	<path style="fill:#000733;" d="M700,136c7.056-1.658,20.202,1.22,27.995,0.01L726,137C717.555,136.387,708.142,138.29,700,136z"/>
	<path style="fill:#000932;" d="M940,291c0.418,0.085,0.813-0.108,0.98,0.5c0.029,0.623-0.966,0.447-0.98,0.5l-25.01-0.5
		C914.99,290.249,938.613,290.719,940,291z"/>
	<path style="fill:#19375D;" d="M925,254c0.828,5.68-0.164,7.611-6.351,6.01c-0.971-0.251-0.148-2.984-2.633-2.007l-2.304,6.019
		L916,265c-1.827,1.677-2.419,1.376-4.004-0.523c3.248-3.651,2.568-11.098,8.001-9.47l-0.994,3.986
		C926.917,260.201,922.265,256.902,925,254z"/>
	<path style="fill:#273453;" d="M937,275c-6.248,0.955-16.311-1.297-22,0C921.446,273.327,930.554,273.327,937,275z"/>
	<path style="fill:#152849;" d="M791,272c0.884-0.225,2.177-1.767,3.996-1.002c-0.671,4.341,1.398,12.676-0.996,16.002
		C793.042,282.685,796.622,272.724,791,272z"/>
	<path style="fill:#011B45;" d="M848,277c-1.05,2.128,1.945,13.585,0.49,14.005c-2.318,0.669-1.438-2.153-1.49-3.496
		c-0.066-1.728-0.302-9.929,0-10.509C847.041,276.921,847.662,277.035,848,277z"/>
	<path style="fill:#102D56;" d="M850,263c1.505-1.123,5.82-1.821,6.018-0.422l-0.012,6.427c-1.994-0.031-4.01,0.045-6.006-0.005
		c4.528-2.191,5.779,0.867,5.005-6.005L850,263z"/>
	<path style="fill:#F0F2F3;" d="M791.996,273.995c-0.13,3.146,0.21,6.376,0.005,9.524c-0.131,2,0.793,2.892-2,2.472
		c1.877-4.035,1.401-8.335-1-11.98L791.996,273.995z"/>
	<path style="fill:#152849;" d="M798,286c-2.399-4.067-0.325-12.072-1-17C799.159,269.697,797.469,283.005,798,286z"/>
	<path style="fill:#001039;" d="M706,291c0.95-0.643,2.091-0.735,3,0v1c-1.08,0.746-2.413,0.746-4,0c-1.656-0.076-3.34,0.005-5,0
		c-0.668,0.362-1.354,0.519-2,0h-1c-0.013-0.159-2.147-1.679,0.484-1.968C697.91,289.985,704.075,290.888,706,291z"/>
	<path style="fill:#0F2B53;" d="M713,293c-2.937,2.064-14.961,3.41-16,1L713,293z"/>
	<path style="fill:#06234B;" d="M606,139c-0.356-0.127-6.624-1.946-7-2v-1C601.699,136.283,604.155,136.821,606,139z"/>
	<path style="fill:#0F2B53;" d="M715,288c0.286-4.193,0.452-7.045,1-11C715.533,280.465,717.17,285.293,715,288z"/>
	<path style="fill:#1F385F;" d="M659,284c-0.921,2.722-8.132-1.173-7,3c-0.118-0.291-0.78-0.616-1-1
		c0.202-0.503-0.605-1.754,0.624-2.043C653.607,283.49,656.777,284.343,659,284z"/>
	<path style="fill:#001138;" d="M868,261c0.046,0.021,0.033,0.868,0,1c-2.74,0.905-6.415,0.792-9,0c-0.058-0.323,0.056-0.676,0-1
		C861.156,261.449,866.559,260.347,868,261z"/>
	<path style="fill:#102D56;" d="M868,262c-0.507,2.015-6.801,0.605-9,1c-0.031-0.328,0.057-0.681,0-1H868z"/>
	<path style="fill:#000E33;" d="M383,209c0.037,0.99,0.034,2.01,0,3c-2.022-1.835-0.675-5.552-0.99-7.995l0.98,0
		C383.057,205.661,382.938,207.341,383,209z"/>
	<path style="fill:#0F2B53;" d="M711,289c0.144-1.885-0.769-4.877,1-6C711.847,285.388,712.72,286.935,711,289z"/>
	<path style="fill:#06234B;" d="M591,156c0.219,0.158,2.275-1.127,2.937,3.57l-0.927,8.425c-0.228-3.708,0.826-6.726-1.01-9.995
		C591.675,157.422,590.89,156.953,591,156z"/>
	<path style="fill:#133157;" d="M868,289c-0.345,3.716-3.785,2.803-7,3c0.09-0.312-0.098-0.705,0-1
		C863.71,291.361,865.994,290.855,868,289z"/>
	<path style="fill:#06234B;" d="M240,74c-0.56,2.173-2.566,0.565-3-1C238.132,72.957,239.017,73.626,240,74z"/>
	<path style="fill:#07254E;" d="M540,169l-8,3C535.878,169.265,535.722,169.845,540,169z"/>
	<path style="fill:#0F2B53;" d="M710,290l1.991,1.013l0.002,0.979c-1.1,0.304-2.315-0.934-2.993-0.992c-0.987-0.085-2.008,0.058-3,0
		C706.65,289.302,709.195,290.354,710,290z"/>
	<path style="fill:#19375D;" d="M918,262c-0.135,0.043-1.581,1.58-2,2C915.758,261.876,915.879,261.761,918,262z"/>
	<path style="fill:#E0E5EB;" d="M674,183c3.331-2.297,1.371,0.144,2,1L674,183z"/>
	<path style="fill:#152849;" d="M790,272c-1.504-0.14-1.504-2.86,0-3C789.808,269.196,790.12,271.194,790,272z"/>
	<path style="fill:#1F385F;" d="M655,288c-1.427,1.49-1.76,1.352-3,0H655z"/>
	<path style="fill:#102D56;" d="M846,266c1.66,0.349,2.229-0.753,3-2C848.255,264.984,848.68,268.696,846,266z"/>
	<path style="fill:#102D56;" d="M846,263c0.238-0.747,0.139-1.561,1-2C846.843,261.801,847.025,262.678,846,263z"/>
	<path style="fill:#E0E5EB;" d="M673,184c-0.634,0.556-1.001,1.095-2,1C671.615,184.581,672.043,183.935,673,184z"/>
	<path style="fill:#0F2B53;" d="M714,292l1-2C714.779,291.303,714.531,291.211,714,292z"/>
	<path style="fill:#1F385F;" d="M661,287c-0.787,0.57-0.825,0.793-2,1L661,287z"/>
	<path style="fill:#122949;" d="M750,293c-0.813,0.736-1.466,1.72-2.688,1.865c-0.987,0.116-1.158-0.814-1.312-0.865L750,293z"/>
	<path style="fill:#00143F;" d="M238,190l0.5-67.01c0.304,20.713,1.319,41.775,0.5,62.51C238.945,186.885,239.7,189.614,238,190z"/>
	<path style="fill:#FDFDFD;" d="M1022,121c13.503-0.323,23.464,0.931,25.74,16.76c1.229,8.551,1.423,38.208,0.022,46.501
		c-0.648,3.837-7.28,15.738-11.262,15.738H1003v-78c4.487-0.243,9.093,0.325,13.58,0.041c1.294-0.082,2.288-1.035,2.42-1.041
		C1019.522,119.446,1021.477,119.441,1022,121z"/>
	<path style="fill:#F1623C;" d="M1019,121h-17v69h-1v-59c0-0.485-6.707-1.13-4.835-7.295c0.919-3.027,4.381-2.385,6.562-3.479
		c2.507-1.258,2.973-3.94,6.486-3.025c4.122,1.074,4.129,1.541,9.337,1.794c1.924,0.093,4.007-1.032,3.45,2.005
		C1021.002,121.024,1019.997,120.958,1019,121z"/>
	<rect x="980" y="124" style="fill:#F15D39;" width="1" height="81"/>
	<rect x="980" y="104" style="fill:#F15D39;" width="1" height="19"/>
	<path style="fill:#F15D39;" d="M980.99,217.995c-2.309-1.392-0.39-6.684-0.98-8.99C982.31,210.314,980.406,215.681,980.99,217.995z
		"/>
	<path style="fill:#F47650;" d="M877,130.99l-10.005,0.015l0.01-7C867.893,123.008,876.679,128.99,877,130.99z"/>
	<path style="fill:#FBFBFB;" d="M769,170c0.613-8.029-3.133-16.073,7.454-17.046c4.459-0.41,31.657-0.43,33.875,0.97
		c3.975,2.509,3.428,16.076-0.829,16.076H769z"/>
	<path style="fill:#0F3058;" d="M763,137c17.748-1.679,37.978,1.249,56,0c-0.859,0.502-0.754,0.921-2.39,1.059
		c-15.597,1.319-33.25-0.828-49.168-0.109c-2.567,0.116-5.671,2.674-9.437,1.04C757.953,137.586,762.013,137.093,763,137z"/>
	<rect x="773" y="203" style="fill:#00143F;" width="61" height="1"/>
	<path style="fill:#001338;" d="M767.99,168.995c-1.745,0.234-0.94-2.269-0.99-3.484c-0.116-2.826,0.071-5.688,0.01-8.506
		c1.745-0.234,0.94,2.269,0.99,3.484C768.116,163.315,767.929,166.177,767.99,168.995z"/>
	<path style="fill:#001134;" d="M767,186c1.662,1.043,0.992,3.794,1.017,5.486c0.019,1.273,0.775,5.478-1.007,5.509
		c0.061-3.317-0.123-6.68-0.01-9.995C767.011,186.668,766.971,186.329,767,186z"/>
	<path style="fill:#0A2B55;" d="M642,99c1.561,0.254,11.036-0.574,11.01,0.51c-0.127,5.262-9.44,2.912-10.015,3.485
		c-1.896,1.892,1.513,47.071-0.074,53.572c5.146,4.561,0.24,6.023,0,7.866c-1.438,11.05,0.851,23.997,2.145,34.146L642,210V99z"/>
	<path style="fill:#F9F9FA;" d="M548,189c0.567-0.99,3.641-4,4.5-4H592v17h-41c-0.206-1.148-2.355-2.754-2.796-4.705
		C547.609,194.66,548.155,191.695,548,189z"/>
	<path style="fill:#00133D;" d="M552,203c13.252,0.676,26.779-0.914,40.01,0.5L552,204V203z"/>
	<rect x="552" y="183" style="fill:#00113C;" width="40" height="1"/>
	<path style="fill:#06234B;" d="M589,138c2.142,0.028,4.364-0.164,6.5,0c1.086,0.083,3.352-0.561,2.492,1.487
		c-2.22,5.282-11.623,5.453-12.992,11.514c-17.788,0.437-35.618,0.502-53.49,0.195L531,149c-0.115-3.984,0.081-8.014,0-12
		c0.318-0.05,0.672,0.014,1,0C550.584,137.151,569.584,137.484,589,138z"/>
	<path style="fill:#0F2F57;" d="M589,137v1c-17.153-0.226-34.349,0.198-51.514,0.017c-1.69-0.018-4.447,0.639-5.486-1.017
		C550.097,136.236,570.853,136.407,589,137z"/>
	<path style="fill:#011840;" d="M531,149c0.951,1.902,1.385,1.929,3.405,2.069c14.442,1.001,37.852-2.583,50.595-0.069
		c0.43,0.085,0.736,0.866,1,1l-55.006,0.002C530.955,151.007,531.029,150.001,531,149z"/>
	<path style="fill:#CCD2DA;" d="M814.005,268c1.599,8.538-8.647,8.437-7.009,0H814.005z"/>
	<path style="fill:#E1E5EB;" d="M825.001,272.995l-8.005,0C815.731,265.79,825.958,265.788,825.001,272.995z"/>
	<rect x="806.005" y="266.01" style="fill:#001036;" width="6.99" height="0.98"/>
	<rect x="804.01" y="266.005" style="fill:#001036;" width="0.98" height="3.99"/>
	<path style="fill:#0F2B53;" d="M709,292c-0.663,2.672-3.603,0.018-4,0H709z"/>
	<path style="fill:#0F2B53;" d="M713.99,285.995c-0.347,0.678-1.698-0.585-0.98-1.99C713.357,283.327,714.708,284.59,713.99,285.995
		z"/>
	<path style="fill:#0F2B53;" d="M700,292c-0.241-0.001-1.081,1.616-2,0H700z"/>
	<path style="fill:#133157;" d="M864,289l1-7c0.76,1.839,1.489,3.542,1.713,5.552C866.307,289.02,865.107,288.781,864,289z"/>
	<path style="fill:#FAFAFB;" d="M544,262c3.616,2.687,4.586,12.729,4,17c-0.891,3.177-2.142,6.176-5,8c-0.379,0.242-4.734,1.961-5,2
		c-3.038,0.443-6.838-0.317-10,0v-29C531.986,260.002,540.802,259.624,544,262z"/>
	<path style="fill:#F0F1F3;" d="M761,275c-0.393-0.385,0.284-9.22-0.005-11.005c1.741,0.168,3.773-0.253,5.431-0.013
		c1.125,0.163,0.9,9.502-0.426,11.018C764.849,274.817,761.27,275.264,761,275z"/>
	<path style="fill:#122949;" d="M753,285l1-2C753.64,283.865,753.734,284.069,753,285z"/>
	<path style="fill:#E3E7EB;" d="M918,278c2.943-0.586,14.736-0.791,15.511,0.427c0.133,0.209,0.136,4.756-0.008,4.958
		c-0.454,0.633-13.433,0.125-15.503-0.385C917.688,281.608,918.213,279.541,918,278z"/>
	<path style="fill:#273453;" d="M918,278c4.658-2.272,10.95-0.415,16.005-1.006L934,284c-4.586,0.746-10.174,0.959-15,0
		c-0.356-0.285-0.885-0.485-1-1l15.005,0.005l0.012-4.427L918,278z"/>
	<path style="fill:#000A34;" d="M934,284c0.124,0.017,3.087,1.495,1.484,2.017C931.048,283.79,922.128,286.51,919,284
		C923.738,284.446,929.425,283.375,934,284z"/>
</g>
<g>
</g>
<g>
</g>
<g>
</g>
<g>
</g>
<g>
</g>
<g>
</g>
<g>
</g>
<g>
</g>
<g>
</g>
<g>
</g>
<g>
</g>
<g>
</g>
<g>
</g>
<g>
</g>
<g>
</g>
</svg>
